/* XPM */
static char *dummy[]={
"64 64 30 1",
"r c #0e0e0e",
"e c #322836",
"k c #332936",
"c c #332a36",
"x c #342a36",
"A c #342b36",
"z c #352c36",
"i c #352c37",
"B c #362c37",
"t c #3b3438",
"v c #3f3938",
"q c #403a38",
"y c #485a19",
"d c #4c434f",
"o c #4d444e",
"f c #4d444f",
"p c #4d4450",
"g c #4d454e",
"l c #4d454f",
"m c #4e454f",
"h c #4e464f",
"n c #4f464f",
"u c #4f474f",
"w c #504752",
"s c #534c4e",
"# c #667a31",
". c #8c9a45",
"a c #9aa94c",
"b c #c1a28b",
"j c #d7bba7",
"................................................................",
"................................................#....#...##.....",
"..................###..............................##...........",
"...#.................................a...............#..........",
"...............................#................................",
"...........##......##..........#............................##..",
"............##.....#..................#.........................",
".#...........#..........a.........a..#b#........................",
".#.............##.....................#.....##......##..........",
".........#...#..##......##...................##.....#...........",
".........##..#####.###.##.....................#.................",
".#........#...##aa###..#........................##..............",
".##........#.##aaa##......................#...#..##......##.....",
"..##......###aaaaaa###........#...........##..#####.###.##......",
"...........##aaaaa#####.......##.#.........#...##aa###..#.......",
"...........#####aa##.#........#.###....a....#.##aaaa#...........",
"..........###..#a##.....#........###.......###aaaaaaa##.........",
"...........#..#aa#.#..cd#.ed................#aaaaaaa####........",
".......##....##a#.....ee..ef..#.............####aaa##.#.........",
"........##....###.##.eddeedddgb#...........###..#a##.....#......",
".........#.........#eddeeddddh#.............#..####.#...##......",
"..#................iddeeedjjddd.........##....#.........#.......",
"..#...............eddeeeddbbddd..........##....#.#.#............",
".................eddddddddddddf...........#.........#...........",
"................eedddddddddddddf...##...........................",
".....##......##kdddddddddddddddl...#............................",
"......##.....#.kdddddddddddddddm...........................##...",
".......#.......edddddddddddddddg#.................#.........#...",
".........##....edddddddddddddddn##......##.......opoq....#......",
"...#...#..#....eddrrddddddddddddd#.###.##......sdddbt.....#..#..",
"...##..##......eddrrddddddddddddd####..#.....uddddjbv........#..",
"....#..........ejjdddddddddddddddaa#........udddddje............",
".....#.......#.ejjwddddddddddddeedddddddddddddddddx.............",
"....##........#ebjjjdddddddddeeejjjjjjdddddeeeeeee......a.......",
"...............kbjjjddddddddeeeebbbbbbdddddek....#..............",
"...............#eeekedddddddddddddbbddddddee....##..............",
".........#........#.eeddddddddddddbbddddddee.....##.#.......#...",
"........#..#.#...##eedjjjjddddddddddddddddee......##.......#b#..",
".##....##.#......#eeddbbbbdddddddddddddddeee.....##.........#...",
"..##....#...##...eddddeeeeeeeeeeeeeeedddeeeee......#............",
"...#.........#..eddddeeeeee........edddeeeeeee..................",
".............yyiddddeeyeddeyyyyyyyedddcyyeeeeezyyy..............",
"............yyymdffAByyyyyyyyyyyykdddkyyyyyyyyyyy.....##........",
".........#.yyyyyyyyyyyyyyyyyyyyyyyyyyyyyyyyyyyyy......#.........",
"........#byyyyyyyyyyyyyyyyyyyyyyyyyyyyyyyyyy....................",
".........#..................yyyyyyyyyyyy..........##............",
"...................#b#......................#...#..##......##...",
"...#................#.......................##..#####.###.##....",
".............................................#...#aaa###..#.....",
"...##.........##.....#......##.#..............#.##aaaa#.........",
"...#........##...............#....#...#......####aaaaaa##.......",
".....#......#.................................#aaaaaaaa###......",
"....##....................##..................####aaa##.#.......",
".................##..........................###..#aa#.....#....",
"..................##..........................#..#aa#.#...##....",
"...........#..............................##....####......#.....",
"......#...#b#.........................a....##........##.........",
"..#....#...#..#.............................#.........#.........",
"..............#.............#...................................",
".....a...............#.....#b#...##.............................",
".....................##.....#.............#...##...........a#...",
".............................................##.......#.........",
"......................................#..##.....................",
"...............#................................................"};
