/* XPM */
static char *dummy[]={
"64 64 10 1",
"f c #0e0e0e",
"c c #322836",
"h c #485a19",
"d c #4c434f",
"g c #504752",
"# c #667a31",
". c #8c9a45",
"a c #9aa94c",
"b c #c1a28b",
"e c #d7bba7",
"................................................................",
"................................................#....#...##.....",
"..................###..............................##...........",
"...#.................................a...............#..........",
"...............................#................................",
"...........##......##..........#............................##..",
"............##.....#..................#.........................",
".#...........#..........a.........a..#b#........................",
".#.............##.....................#.....##......##..........",
".........#...#..##......##...................##.....#...........",
".........##..#####.###.##.....................#.................",
".#........#...##aa###..#........................##..............",
".##........#.##aaa##......................#...#..##......##.....",
"..##......###aaaaaa###........#...........##..#####.###.##......",
"...........##aaaaa#####.......##.#.........#...##aa###..#.......",
"...........#####aa##.#........#.###....a....#.##aaaa#...........",
"..........###..#a##.....#........###.......###aaaaaaa##.........",
"...........#..#aa#.#..cd#.cd................#aaaaaaa####........",
".......##....##a#.....cc..cd..#.............####aaa##.#.........",
"........##....###.##.cddccddddb#...........###..#a##.....#......",
".........#.........#cddccddddd#.............#..####.#...##......",
"..#................cddcccdeeddd.........##....#.........#.......",
"..#...............cddcccddbbddd..........##....#.#.#............",
".................cddddddddddddd...........#.........#...........",
"................ccdddddddddddddd...##...........................",
".....##......##cdddddddddddddddd...#............................",
"......##.....#.cdddddddddddddddd...........................##...",
".......#.......cdddddddddddddddd#.................#.........#...",
".........##....cdddddddddddddddd##......##.......#b#.....#......",
"...#...#..#....cddffddddddddddddd#.###.##.........#.......#..#..",
"...##..##......cddffddddddddddddd####..#.....ddddddddd.......#..",
"....#..........ceeddddddddddddddcaa#........ddddddddeb..........",
".....#.......#.ceegddddddddddddccccdddddddddddddddddeb..........",
"....##........#cbeeedddddddddccceeeeeedddddccccccccccc..a.......",
"...............cbeeeddddddddccccbbbbbbdddddcc....#..............",
"...............#cccccdddddddddddddbbddddddcc....##..............",
".........#........#..cddddddddddddbbddddddcc.....##.#.......#...",
"........#..#.#...##..ceeeeddddddddddddddddcc......##.......#b#..",
".##....##.#......#...cbbbbdddddddddddddddcccc....##.........#...",
"..##....#...##........ccddcccccccccccccccccccc.....#............",
"...#...................cddc........ccccc.ccccc..................",
".............hhhhhhhhhhcddchhhhhhhhccccchhcccccc................",
"...............hhhhhhhhcddchhhhhhhhcddcchhhcddcc......##........",
".........#........hhhhhhhhhhhhhhhhhhhhhhhhhhhhh##.....#.........",
"........#b#..........hhhhhhhhhhhhhhhhhhhhhhh....#...............",
".........#..........#............hhhhhhh..........##............",
"...................#b#......................#...#..##......##...",
"...#................#.......................##..#####.###.##....",
".............................................#...#aaa###..#.....",
"...##.........##.....#......##.#..............#.##aaaa#.........",
"...#........##...............#....#...#......####aaaaaa##.......",
".....#......#.................................#aaaaaaaa###......",
"....##....................##..................####aaa##.#.......",
".................##..........................###..#aa#.....#....",
"..................##..........................#..#aa#.#...##....",
"...........#..............................##....####......#.....",
"......#...#b#.........................a....##........##.........",
"..#....#...#..#.............................#.........#.........",
"..............#.............#...................................",
".....a...............#.....#b#...##.............................",
".....................##.....#.............#...##...........a#...",
".............................................##.......#.........",
"......................................#..##.....................",
"...............#................................................"};
