/* XPM */
static char *dummy[]={
"64 64 10 1",
"f c #0e0e0e",
"d c #322836",
"h c #485a19",
"c c #4c434f",
"g c #504752",
"# c #667a31",
". c #8c9a45",
"a c #9aa94c",
"b c #c1a28b",
"e c #d7bba7",
"................................................................",
"................................................#....#...##.....",
"..................###..............................##...........",
"...#.................................a...............#..........",
"...............................#................................",
"...........##......##..........#............................##..",
"............##.....#..................#.........................",
".#...........#..........a.........a..#b#........................",
".#.............##.....................#.....##......##..........",
".........#...#..##......##...................##.....#...........",
".........##..#####.###.##.....................#.................",
".#........#...##aa###..#........................##..............",
".##........#.##aaa##......................#...#..##......##.....",
"..##......###aaaaaa###........#...........##..#####.###.##......",
"...........##aaaaa#####.......##.#.........#...##aa###..#.......",
"...........#####aa##.#........#.###....a....#.##aaaa#...........",
"..........###..#a##.....#........###.......###aaaaaaa##.........",
"...........#..#aa#.#...##..............cd..cdaaaaaaa####........",
".......##....##a#......#......#........cd..dd###aaa##.#.........",
"........##....###.##.........#b#.....ccccddccd..#a##.....#......",
".........#.........#..........#......cccccddccd####.#...##......",
"..#.................................ccceecdddccd........#.......",
"..#...........................a.....cccbbccdddccd#.#............",
"....................................cccccccccccccd..#...........",
".................a.........##......ccccccccccccccdd.............",
".....##......##.............##.....ccccccccccccccccd............",
"......##.....#...............#.....ccccccccccccccccd.......##...",
".......#.......................##..ccccccccccccccccd........#...",
".........##.e.dccc.......#...#..##.ccccccccccccccccd.....#......",
"...#...#..#...dbcccc.....##..#####cccccccccccccffccd......#..#..",
"...##..##.....dbeccccc....#...##a#cccccccccccccffccd.........#..",
"....#..........decccccc....#.##aaaccccccccccccccceed............",
".....#..........dcccccccccccccccccddccccccccccccgeed............",
"....##...........dddddddccccceeeeeedddccccccccceeebd....a.......",
"...............##.....ddcccccbbbbbbddddcccccccceeebd............",
"...............#......addccccccbbcccccccccccccddddd.............",
".........#........#....ddccccccbbccccccccccccdd..##.#.......#...",
"........#..#.#...##....ddcccccccccccccccceeeecdd..##.......#b#..",
".##....##.#......#.....dddcccccccccccccccbbbbccdd.#.........#...",
"..##....#...##........dddddcccdddddddddddddddccccd.#............",
"...#.........#.......dddddddcccd........ddddddccccd.............",
"..................hhddddddhhdcccdhhhhhhhdccdhddccccdhh..........",
"..................hhhhhhhhhhhdcccdhhhhhhhhhhhhddcccchhh.........",
".........#..........hhhhhhhhhhhhhhhhhhhhhhhhhhhhhhhhhhhh........",
"........#b#............hhhhhhhhhhhhhhhhhhhhhhhhhhhhhhhhhh.......",
".........#..........#......hhhhhhhhhhh............##............",
"...................#b#......................#...#..##......##...",
"...#................#.......................##..#####.###.##....",
".............................................#...#aaa###..#.....",
"...##.........##.....#......##.#..............#.##aaaa#.........",
"...#........##...............#....#...#......####aaaaaa##.......",
".....#......#.................................#aaaaaaaa###......",
"....##....................##..................####aaa##.#.......",
".................##..........................###..#aa#.....#....",
"..................##..........................#..#aa#.#...##....",
"...........#..............................##....####......#.....",
"......#...#b#.........................a....##........##.........",
"..#....#...#..#.............................#.........#.........",
"..............#.............#...................................",
".....a...............#.....#b#...##.............................",
".....................##.....#.............#...##...........a#...",
".............................................##.......#.........",
"......................................#..##.....................",
"...............#................................................"};
