/* XPM */
static char *dummy[]={
"64 64 10 1",
"c c #322836",
"e c #3f4f12",
"h c #463e49",
"g c #49414c",
"f c #4b424e",
"d c #4c434f",
"# c #667a31",
". c #8c9a45",
"a c #9aa94c",
"b c #c1a28b",
"................................................................",
"................................................#....#...##.....",
"..................###..............................##...........",
"...#.................................a...............#..........",
"...............................#................................",
"...........##......##..........#............................##..",
"............##.....#..................#.........................",
".#...........#..........a.........a..#b#........................",
".#.............##.....................#.....##......##..........",
".........#...#..##......##...................##.....#...........",
".........##..#####.###.##.....................#.................",
".#........#...##aa###..#........................##..............",
".##........#.##aaa##......................#...#..##......##.....",
"..##......###aaaaaa###........#...........##..#####.###.##......",
"...........##aaaaa#####.......##.#.........#...##aa###..#.......",
"...........#####aa##.#........#.###....a....#.##aaaa#...........",
"..........###..#a##.....#........###.......###aaaaaaa##.........",
"...........#..#aa#.#...##...................#aaaaaaa####........",
".......##....##a#......#......#.............####aaa##.#.........",
"........##....###.##.........#b#.....cc....###..#a##.....#......",
".........#.........#......c...#.....cccc....#..####.#...##......",
"..#......................ccc.......ccddc##....#.........#.......",
"..#.....................ccdcc.a...ccdddcc##....#.#.#............",
"........................cdddccccccccddddc.#.........#...........",
".................a.....cdddcdddddddcddddc.......................",
".....##......##........cddddddddddddddddc.......................",
"......##.....#.........cdcdddddddddddcddc..................##...",
".......#..............cccdddddddddddddcdc.........#.........#...",
".........##...........ccdddddddddddddddddc.......#b#.....#......",
"...#...#..#.......##.ccddddddddddddddddddcc.......#.......#..#..",
"...##..##......#.##..cddddddddddddddddddddc...a..............#..",
"....#............#...cddddddddddddddddddddc.....................",
".....#.......#.......ccddddddddddddddddddcc.....................",
"....##........##......ccddddddddddddddddccee............a.......",
"...............##......ccddddddddcdddddcceeee....#..............",
"...............#......acccdddddddcdddddccccee...##..............",
".........#........#......ccccddddcdddddccccce....##.#.......#...",
"........#..#.#...##.....ccccccdddcdddddccccce.....##.......#b#..",
".##....##.#......#.....ccccccccdddddddddcccce....##.........#...",
"..##....#...##........cccccccccddddddddddccee......#............",
"...#.........#.......ccdddfghddcccccccccccee....................",
"....................accddddddddccccccccceee.....................",
".....................ecccccccccceeeeeeeeee....##......##........",
".........#...........eecccccccc#b#...#.........##.....#.........",
"........#b#.....................#.....##........#...............",
".........#..........#.............................##............",
"...................#b#......................#...#..##......##...",
"...#................#.......................##..#####.###.##....",
".............................................#...#aaa###..#.....",
"...##.........##.....#......##.#..............#.##aaaa#.........",
"...#........##...............#....#...#......####aaaaaa##.......",
".....#......#.................................#aaaaaaaa###......",
"....##....................##..................####aaa##.#.......",
".................##..........................###..#aa#.....#....",
"..................##..........................#..#aa#.#...##....",
"...........#..............................##....####......#.....",
"......#...#b#.........................a....##........##.........",
"..#....#...#..#.............................#.........#.........",
"..............#.............#...................................",
".....a...............#.....#b#...##.............................",
".....................##.....#.............#...##...........a#...",
".............................................##.......#.........",
"......................................#..##.....................",
"...............#................................................"};
