/* XPM */
static char *dummy[]={
"64 64 13 1",
"g c #0c1a37",
"h c #172a52",
"k c #3f4f12",
"f c #443f39",
"i c #474343",
"j c #546529",
"c c #5c554c",
"# c #667a31",
"e c #7b7765",
". c #8c9a45",
"a c #9aa94c",
"d c #a09b83",
"b c #c1a28b",
"................................................................",
"................................................#....#...##.....",
"..................###..............................##...........",
"...#.................................a...............#..........",
"...............................#................................",
"...........##......##..........#............................##..",
"............##.....#..................#.........................",
".#...........#..........a.........a..#b#........................",
".#.............##.....................#.....##......##..........",
".........#...#..##......##...................##.....#...........",
".........##..#####.###.##.....................#.................",
".#........#...##aa###..#........................##..............",
".##........#.##aaa##.......cccdddddcccc...#...#..##......##.....",
"..##......###aaaaaa###...ccccdddddddecccc.##..#####.###.##......",
"...........##aaaaa#####dddeeeddddddeeeeecc.#...##aa###..#.......",
"...........#####aa##.edddddeeeeddeedddddecc.#.##aaaa#...........",
"..........###..#a##.edddddddeeeecedddddddecc##aaaaaaa##.........",
"...........#..#aa#.ddddddddceeeeecdddddddeeccaaaaaaa####........",
".......##....##a#.edddddddccdddddcedddddddeecc##aaa##.#.........",
"........##....###ceddddddccdddddddcddddddddeccc.#a##.....#......",
".........#......ccedddddcccdddddddddddcdddddecc####.#...##......",
"..#............ccceddddeccccdddddddddcddddddeecc........#.......",
"..#...........cceeceddecccceeeeddddddcdddddddccdd#.#............",
".............cccceecccccccceeeeeeeeecdddddddcccddd..#...........",
"............cccddeeeeeccccfeeeeeeeeceeeeeddeececddc.............",
".....##.....ccddddeeeeeeccfceeecccfceeeeeeeeeeecfcc.............",
"......##...cceddddeeeeeeeecccccccccccceeeeeeeeeecccc.......##...",
".......#...cceeddceeeeeeccccfffffffcccceeeeeeeceeccc........#...",
".........#cceeeeeefeececccffffffffffffcceeeeeceecddec....#......",
"...#...#..cceddeeeeccccccffcggggcffffffcccceefecdddde.....#..#..",
"...##..##.ceddddeeeeccccfffcggggcgffggfccccefecdddddde.......#..",
"....#....cddddddddeeeccffffcggggcgfgggffcceefeddddddde..........",
".....#...cdddddddddeccffgffgggggggfggggffccfeeedddddecc.........",
"....##..eddddddddddeccffgfgggggggggggggcfcceeeecdddcccc.a.......",
"........ddddddddddcecfcggfgggggggggggggcffcceeecccccecc.........",
"........dddddddecceccfcggggggggggggggggcgfccceeeccececcc........",
"........dddddcccccecffcggggggggggggggggggffceeeeeeeeeecc....#...",
"........edddccccceecffcgggggggggggggggggggfcceeeeeeddecc...#b#..",
".##....#ceeccccceeecfgcgggggggggggggggggggffceeeeedddddc....#...",
"..##....cccceccceeecfgggggggggggggggggggggfffceeeddddddc........",
"...#.....cceeecceeecfgggggggggggggggggggggfedceeecddddec........",
".........ceeedddeeccfggggggggggggggggggggfeddddeeecddecc........",
"........ccdddddddeccffgggggggggggggggggggfccddddeecccccc........",
"........cdddddddddcccfggggghghghghghgggggffceddceeeccecc........",
"........ceddddddddcccfhghghghghghghghghghffcccceeeeceecc........",
"........eeeddddddddccfghghghhhhhhhhhghghgffccceeeeeeecc.........",
".........ceddddddddccffghghhhhhhhhhhhhhghffcceeeeeeeecc....##...",
"...#.....cedddddddcccffhhhhhhiiiiiihhhhhfffccdddeeeeecc##.##....",
".........#eedddddeccccffhhhiiiiiiiiiihhhfffcjddddeeeec##..#.....",
"...##....##..edeeeccccffhiiiiiiiiiiiiiihfffjddddddeeec#.........",
"...#......##..eeeecccfkkiiiiiiiiiiiiiiiiffjjcddddeeeck###.......",
".....#....###.eeeeecfffkkkkkkkkkkkkkkkkkkkkkccee..eekk####......",
"....##.....kk#kkeeeeccckkkkkkkkkkkkkkkkkkkkkkce..cckkk#.#.......",
"............kkkkkkkkkkkkk##################kkkk.kkkkk##....#....",
"............####kkkkkkkk##...................#kkkkkk###...##....",
"...........#....#########.................##...######.....#.....",
"......#...#b#.........................a....##........##.........",
"..#....#...#..#.............................#.........#.........",
"..............#.............#...................................",
".....a...............#.....#b#...##.............................",
".....................##.....#.............#...##...........a#...",
".............................................##.......#.........",
"......................................#..##.....................",
"...............#................................................"};
