/* XPM */
static char *dummy[]={
"64 64 76 2",
".1 c #000000",
"#j c #0c0d0d",
".0 c #0e0e0e",
"#a c #664343",
".# c #667a31",
".X c #694444",
".W c #6b4545",
"#c c #6b4646",
"#b c #6c4747",
".7 c #6e4848",
".9 c #71494a",
".P c #734b4b",
"#. c #754b4b",
".e c #7b7b7b",
".8 c #7c534a",
"#f c #875f5f",
"Qt c #8c9a45",
".U c #8d5a5a",
"#d c #966f6f",
"#g c #986a6a",
".a c #9aa94c",
".Y c #a07c7c",
"#h c #a56c6c",
".T c #a98080",
".f c #ababab",
"## c #b38282",
".V c #b47979",
".h c #b48989",
".E c #b67f7f",
".n c #b68383",
".k c #b77878",
".L c #b77d7d",
".w c #b98181",
".i c #ba7373",
".p c #ba7474",
".q c #ba7575",
".v c #ba7676",
"#i c #ba7979",
".j c #bb7272",
".u c #bb7676",
".F c #bd8080",
".o c #be8383",
".5 c #bea5a5",
".l c #bf9595",
".S c #c07878",
".D c #c07a7a",
".b c #c1a28b",
".3 c #c3a3a3",
".g c #c49797",
".t c #c57c7c",
".m c #c67979",
".x c #c67d7d",
".r c #c87f7f",
"#e c #cd8585",
".6 c #d88b8c",
".Z c #d9d9d9",
".s c #e28d8d",
".2 c #e49692",
".J c #e79d9d",
".A c #e99696",
".z c #ec9595",
".d c #ecbe32",
".4 c #ee9696",
".M c #f29f9f",
".R c #f49e9e",
".Q c #f7a5a5",
".y c #f9a2a2",
".G c #fba3a3",
".C c #fba5a5",
".B c #fca3a3",
".O c #fca7a7",
".I c #fea6a6",
".H c #ffa2a2",
".N c #ffa5a5",
".K c #ffa8a8",
".c c #ffdd73",
"QtQtQtQtQtQtQtQtQtQtQtQtQtQtQtQtQtQtQtQtQtQtQtQtQtQtQtQtQtQtQtQtQtQtQtQtQtQtQtQtQtQtQtQtQtQtQtQtQtQtQtQtQtQtQtQtQtQtQtQtQtQtQtQt",
"QtQtQtQtQtQtQtQtQtQtQtQtQtQtQtQtQtQtQtQtQtQtQtQtQtQtQtQtQtQtQtQtQtQtQtQtQtQtQtQtQtQtQtQtQtQtQtQt.#QtQtQtQt.#QtQtQt.#.#QtQtQtQtQt",
"QtQtQtQtQtQtQtQtQtQtQtQtQtQtQtQtQtQt.#.#.#QtQtQtQtQtQtQtQtQtQtQtQtQtQtQtQtQtQtQtQtQtQtQtQtQtQtQtQtQtQt.#.#QtQtQtQtQtQtQtQtQtQtQt",
"QtQtQt.#QtQtQtQtQtQtQtQtQtQtQtQtQtQtQtQtQtQtQtQtQtQtQtQtQtQtQtQtQtQtQtQtQt.aQtQtQtQtQtQtQtQtQtQtQtQtQtQtQt.#QtQtQtQtQtQtQtQtQtQt",
"QtQtQtQtQtQtQtQtQtQtQtQtQtQtQtQtQtQtQtQtQtQtQtQtQtQtQtQtQtQtQt.#QtQtQtQtQtQtQtQtQtQtQtQtQtQtQtQtQtQtQtQtQtQtQtQtQtQtQtQtQtQtQtQt",
"QtQtQtQtQtQtQtQtQtQtQt.#.#QtQtQtQtQtQt.#.#QtQtQtQtQtQtQtQtQtQt.#QtQtQtQtQtQtQtQtQtQtQtQtQtQtQtQtQtQtQtQtQtQtQtQtQtQtQtQt.#.#QtQt",
"QtQtQtQtQtQtQtQtQtQtQtQt.#.#QtQtQtQtQt.#QtQtQtQtQtQtQtQtQtQtQtQtQtQtQtQtQtQt.#QtQtQtQtQtQtQtQtQtQtQtQtQtQtQtQtQtQtQtQtQtQtQtQtQt",
"Qt.#QtQtQtQtQtQtQtQtQtQtQt.#QtQtQtQtQtQtQtQtQtQt.aQtQtQtQtQtQtQtQtQt.aQtQt.#.b.#QtQtQtQtQtQtQtQtQtQtQtQtQtQtQtQtQtQtQtQtQtQtQtQt",
"Qt.#QtQtQtQtQtQtQtQtQtQtQtQtQt.#.#QtQtQtQtQtQtQtQtQtQtQtQtQtQtQtQtQtQtQtQtQt.#QtQtQtQtQt.#.#QtQtQtQtQtQt.#.#QtQtQtQtQtQtQtQtQtQt",
"QtQtQtQtQtQtQtQtQt.#QtQtQt.#QtQt.#.#QtQtQtQtQtQt.#.#QtQtQtQtQtQtQtQtQtQtQtQtQtQtQtQtQtQtQt.#.#QtQtQtQtQt.#QtQtQtQtQtQtQtQtQtQtQt",
"QtQtQtQtQtQtQtQtQt.#.#QtQt.#.#.#.#.#Qt.#.#.#Qt.#.#QtQtQtQtQtQtQtQtQtQtQtQtQtQtQtQtQtQtQtQtQt.#QtQtQtQtQtQtQtQtQtQtQtQtQtQtQtQtQt",
"Qt.#QtQtQtQtQtQtQtQt.#QtQtQt.#.#.a.a.#.#.#QtQt.#QtQtQtQtQtQtQtQtQtQtQtQtQtQtQtQtQtQtQtQtQtQtQtQt.#.#QtQtQtQtQtQtQtQtQtQtQtQtQtQt",
"Qt.#.#QtQtQtQtQtQtQtQt.#Qt.#.#.a.a.a.#.#QtQtQtQtQtQtQtQtQtQtQtQtQtQtQtQtQtQtQtQtQtQt.#QtQtQt.#QtQt.#.#QtQtQtQtQtQt.#.#QtQtQtQtQt",
"QtQt.#.#QtQtQtQtQtQt.#.#.#.a.a.a.a.a.a.#.#.#QtQtQtQtQtQtQtQt.#QtQtQtQtQtQtQtQtQtQtQt.#.#QtQt.#.#.#.#.#Qt.#.#.#Qt.#.#QtQtQtQtQtQt",
"QtQtQtQtQtQtQtQtQtQtQt.#.#.a.a.a.a.a.#.#.#.#.#QtQtQtQtQtQtQt.#.#Qt.#QtQtQtQtQtQtQtQtQt.#QtQtQt.#.#.a.a.#.#.#QtQt.#QtQtQtQtQtQtQt",
"QtQtQtQtQtQtQtQtQtQtQt.#.#.#.#.#.a.a.#.#Qt.#QtQtQtQtQtQtQtQt.#Qt.#.#.#QtQtQtQt.aQtQtQtQt.#Qt.#.#.a.a.a.a.#QtQtQtQtQtQtQtQtQtQtQt",
"QtQtQtQtQtQtQtQtQtQt.#.#.#QtQt.#.a.#.#QtQtQtQtQt.#QtQtQtQtQtQtQtQt.#.#.#QtQtQtQtQtQtQt.#.#.#.a.a.a.a.a.a.a.#.#QtQtQtQtQtQtQtQtQt",
"QtQtQtQtQtQtQtQtQtQtQt.#QtQt.#.a.a.#Qt.#QtQtQt.#.#QtQtQtQtQtQtQtQtQtQtQtQtQtQtQtQtQtQtQt.#.a.a.a.a.a.a.a.#.#.#.#QtQtQtQtQtQtQtQt",
"QtQtQtQtQtQtQt.#.#QtQtQtQt.#.#.a.#QtQtQtQtQtQt.#QtQtQtQtQtQt.#QtQtQtQtQtQtQtQtQtQtQtQtQt.#.#.#.#.a.a.a.#.#Qt.#QtQtQtQtQtQtQtQtQt",
"QtQtQtQtQtQtQtQt.#.#QtQtQtQt.#.#.#Qt.#.#QtQtQtQtQtQtQtQtQt.#.b.#Qt.cQtQtQtQtQtQtQtQtQt.#.#.#QtQt.#.a.#.#QtQtQtQtQt.#QtQtQtQtQtQt",
"QtQtQtQtQtQtQtQtQt.#QtQtQtQtQtQtQtQtQt.#QtQtQtQtQtQtQtQtQtQt.#Qt.c.d.cQtQtQtQtQtQtQtQtQt.#QtQt.#.#.#.#Qt.#QtQtQt.#.#QtQtQtQtQtQt",
"QtQt.#QtQtQtQtQtQtQtQtQtQtQtQtQtQtQtQtQtQtQtQtQtQtQtQtQtQtQtQt.c.d.d.d.cQtQtQtQt.#.#QtQtQtQt.#QtQtQtQtQtQtQtQtQt.#QtQtQtQtQtQtQt",
"QtQt.#QtQtQtQtQtQtQtQtQtQtQtQtQtQtQtQtQtQtQtQtQtQtQtQtQtQtQt.aQt.c.d.cQtQtQtQtQtQt.#.#QtQtQtQt.#Qt.#Qt.#QtQtQtQtQtQtQtQtQtQtQtQt",
"QtQtQtQtQtQtQtQtQtQtQtQtQtQtQtQtQtQtQtQtQtQtQtQtQtQtQtQtQtQtQtQtQt.cQtQtQtQtQtQtQtQt.#QtQtQtQtQtQtQtQtQt.#QtQtQtQtQtQtQtQtQtQtQt",
"QtQtQtQtQtQtQtQtQtQtQtQtQtQtQtQtQt.aQtQtQtQtQtQtQtQtQt.#.#QtQtQtQtQtQt.#.#QtQtQtQtQtQtQtQtQtQtQtQtQtQtQtQtQtQtQtQtQtQtQtQtQtQtQt",
"QtQtQtQtQt.#.#QtQtQtQtQtQt.#.#QtQtQtQtQtQtQtQtQtQtQtQtQt.#.#QtQtQtQtQt.#QtQtQtQtQtQtQtQtQtQtQtQtQtQtQtQtQtQtQtQtQtQtQtQtQtQtQtQt",
"QtQtQtQtQtQt.#.#QtQtQtQtQt.#QtQtQtQt.cQtQtQtQtQtQtQtQtQtQt.#QtQtQtQtQtQtQtQtQtQtQtQtQtQtQtQtQtQtQtQtQtQtQtQtQtQtQtQtQt.#.#QtQtQt",
"QtQtQtQtQtQtQt.#QtQtQtQtQtQtQtQtQt.c.d.cQtQtQtQt.e.e.e.e.eQtQt.#.#QtQtQtQtQt.e.e.e.e.eQtQtQtQtQtQtQt.#QtQtQtQtQtQtQtQtQt.#QtQtQt",
"QtQtQtQtQtQtQtQtQt.#.#QtQtQtQtQt.c.d.d.d.cQtQt.e.f.f.f.f.f.eQtQt.#.#QtQtQt.e.f.f.f.f.f.eQtQtQtQtQt.#.b.#QtQtQtQtQt.#QtQtQtQtQtQt",
"QtQtQt.#QtQtQt.#QtQt.#QtQtQtQtQtQt.c.d.cQtQt.e.g.h.h.f.f.f.f.e.#.#.#Qt.#.#.e.f.f.i.j.k.l.eQtQtQtQtQt.#QtQtQtQtQtQtQt.#QtQt.#QtQt",
"QtQtQt.#.#QtQt.#.#QtQtQtQtQtQt.#Qt.#.cQtQtQt.e.m.j.j.n.f.f.f.f.e.e.e.e.e.e.e.f.o.p.q.r.s.eQt.aQtQtQtQtQtQtQtQtQtQtQtQtQtQt.#QtQt",
"QtQtQtQt.#QtQtQtQtQtQtQtQtQtQtQtQt.#QtQtQtQt.e.t.u.u.v.f.f.f.f.f.e.f.f.f.f.e.f.w.p.x.y.z.eQtQtQtQtQtQtQtQtQtQtQtQtQtQtQtQtQtQtQt",
"QtQtQtQtQt.#QtQtQtQtQtQtQt.#QtQtQtQtQtQtQtQt.e.A.B.C.D.E.f.f.f.f.f.f.f.f.f.f.f.f.F.G.H.I.eQtQtQtQtQtQtQtQtQtQtQtQtQtQtQtQtQtQtQt",
"QtQtQtQt.#.#QtQtQtQtQtQtQtQt.#.#QtQtQtQtQtQt.e.J.K.K.D.L.f.f.f.f.f.f.f.f.f.f.f.f.f.M.N.O.eQtQtQtQtQtQtQtQtQtQtQt.aQtQtQtQtQtQtQt",
"QtQtQtQtQtQtQtQtQtQtQtQtQtQtQt.#.#QtQtQtQtQtQt.P.Q.R.S.T.f.f.f.f.f.f.f.f.f.f.f.f.f.U.V.eQtQtQtQtQt.#QtQtQtQtQtQtQtQtQtQtQtQtQtQt",
"QtQtQtQtQtQtQtQtQtQtQtQtQtQtQt.#QtQtQtQtQtQt.a.e.W.X.Y.f.f.f.f.f.f.f.f.f.f.f.f.f.f.f.eQtQtQtQtQt.#.#QtQtQtQtQtQtQtQtQtQtQtQtQtQt",
"QtQtQtQtQtQtQtQtQt.#QtQtQtQtQtQtQtQt.#QtQtQtQtQt.e.e.f.f.f.f.f.f.f.f.f.f.f.f.f.f.f.eQtQtQtQtQtQtQt.#.#Qt.#QtQtQtQtQtQtQt.#QtQtQt",
"QtQtQtQtQtQtQtQt.#QtQt.#Qt.#QtQtQt.#.#QtQtQtQtQt.#Qt.e.f.f.f.f.Z.0.f.f.f.f.f.f.f.Z.eQtQtQtQt.cQtQtQt.#.#QtQtQtQtQtQtQt.#.b.#QtQt",
"Qt.#.#QtQtQtQt.#.#Qt.#QtQtQtQtQtQt.#QtQtQtQtQtQt.#.#.e.f.f.f.f.0.0.f.f.f.f.f.f.f.1.eQtQtQt.c.d.cQt.#.#QtQtQtQtQtQtQtQtQt.#QtQtQt",
"QtQt.#.#QtQtQtQt.#QtQtQt.#.#QtQtQtQtQtQtQtQtQtQtQt.#.e.f.f.f.f.0.0.f.f.f.f.f.f.f.1.eQtQt.c.d.d.d.cQtQt.#QtQtQtQtQtQtQtQtQtQtQtQt",
"QtQtQt.#QtQtQtQtQtQtQtQtQt.#QtQtQtQt.eQtQtQtQtQtQtQt.e.f.f.f.f.f.f.f.f.f.f.f.f.f.f.eQtQtQt.c.d.cQtQtQtQtQtQtQtQtQtQtQtQtQtQtQtQt",
"QtQtQtQtQtQtQtQtQtQtQtQtQtQtQtQtQt.e.2.e.aQtQt.e.e.e.f.f.f.u.u.u.f.f.f.f.3.4.5.f.u.eQtQtQtQt.cQtQtQtQtQtQtQtQtQtQtQtQtQtQtQtQtQt",
"QtQtQtQtQtQtQtQtQtQtQtQtQtQtQtQtQt.e.6.7.e.e.e.8.9#..f.f.f.f.f.f.f.f.f.f.f##.f.f.f.eQtQtQtQt.#.#QtQtQtQtQtQt.#.#QtQtQtQtQtQtQtQt",
"QtQtQtQtQtQtQtQtQt.#QtQtQtQtQtQtQt.1.e#a#b#c.9.e.e.e.e.f.f.f.f.f.f.f.f.f.f.f.f.f.eQtQtQtQtQtQt.#.#QtQtQtQtQt.#QtQtQtQtQtQtQtQtQt",
"QtQtQtQtQtQtQtQt.#.b.#QtQtQtQtQtQtQtQt.e.e.e.eQtQtQt.e#d.e.e.e.f.f.f.f.f.f.f.f.f.eQtQtQtQtQtQtQt.#QtQtQtQtQtQtQtQtQtQtQtQtQtQtQt",
"QtQtQtQtQtQtQtQtQt.#QtQtQtQtQtQtQtQtQtQt.#QtQtQtQtQt.e#e.eQt.e#f.e.e.e.e.e.e.e#g.eQtQtQtQtQtQtQtQtQt.#.#QtQtQtQtQtQtQtQtQtQtQtQt",
"QtQtQtQtQtQtQtQtQtQtQtQtQtQtQtQtQtQtQt.#.b.#Qt.cQtQt.e.e.eQt.e#h.eQtQtQtQtQt.e#i.eQtQtQt.#QtQtQt.#QtQt.#.#QtQtQtQtQtQt.#.#QtQtQt",
"QtQtQt.#QtQtQtQtQtQtQtQtQtQtQtQtQtQtQtQt.#Qt.c.d.cQtQtQtQtQt.e.e.e#jQtQtQtQt.e.e.eQtQtQt.#.#QtQt.#.#.#.#.#Qt.#.#.#Qt.#.#QtQtQtQt",
"QtQtQtQtQtQtQtQtQtQtQtQtQtQtQtQtQtQtQtQtQtQtQt.cQtQtQtQtQtQtQtQtQtQtQtQtQtQtQtQtQtQtQtQtQt.#QtQtQt.#.a.a.a.#.#.#QtQt.#QtQtQtQtQt",
"QtQtQt.#.#QtQtQtQtQtQtQtQtQt.#.#QtQtQtQtQt.#QtQtQtQtQtQt.#.#Qt.#QtQtQtQtQtQtQtQtQtQtQtQtQtQt.#Qt.#.#.a.a.a.a.#QtQtQtQtQtQtQtQtQt",
"QtQtQt.#QtQtQtQtQtQtQtQt.#.#QtQtQtQtQtQtQtQtQtQtQtQtQtQtQt.#QtQtQtQt.#QtQtQt.#QtQtQtQtQtQt.#.#.#.#.a.a.a.a.a.a.#.#QtQtQtQtQtQtQt",
"QtQtQtQtQt.#QtQtQtQtQtQt.#QtQtQtQtQtQtQtQtQtQtQtQtQtQtQtQtQtQtQtQtQtQtQtQtQtQtQtQtQtQtQtQtQt.#.a.a.a.a.a.a.a.a.#.#.#QtQtQtQtQtQt",
"QtQtQtQt.#.#QtQtQtQtQtQtQtQtQtQtQtQtQtQtQtQtQtQtQtQt.#.#QtQtQtQtQtQtQtQtQtQtQtQtQtQtQtQtQtQt.#.#.#.#.a.a.a.#.#Qt.#QtQtQtQtQtQtQt",
"QtQtQtQtQtQtQtQtQtQtQtQtQtQtQtQtQt.#.#QtQtQtQtQtQtQtQtQtQtQtQtQtQtQtQtQtQtQtQtQtQtQtQtQtQt.#.#.#QtQt.#.a.a.#QtQtQtQtQt.#QtQtQtQt",
"QtQtQtQtQtQtQtQtQtQtQtQtQtQtQtQtQtQt.#.#QtQtQtQtQtQtQtQtQtQtQtQtQtQtQtQtQtQtQtQtQtQtQtQtQtQt.#QtQt.#.a.a.#Qt.#QtQtQt.#.#QtQtQtQt",
"QtQtQtQtQtQtQtQtQtQtQt.#QtQtQtQtQtQtQtQtQtQtQtQtQtQtQtQtQtQtQtQtQtQtQtQtQtQtQtQtQtQt.#.#QtQtQtQt.#.#.#.#QtQtQtQtQtQt.#QtQtQtQtQt",
"QtQtQtQtQtQt.#QtQtQt.#.b.#QtQtQtQtQtQtQtQtQtQtQtQtQtQtQtQtQtQtQtQtQtQtQtQtQt.aQtQtQtQt.#.#QtQtQtQtQtQtQtQt.#.#QtQtQtQtQtQtQtQtQt",
"QtQt.#QtQtQtQt.#QtQtQt.#QtQt.#QtQtQtQtQtQtQtQtQtQtQtQtQtQtQtQtQtQtQtQtQtQtQtQtQtQtQtQtQt.#QtQtQtQtQtQtQtQtQt.#QtQtQtQtQtQtQtQtQt",
"QtQtQtQtQtQtQtQtQtQtQtQtQtQt.#QtQtQtQtQtQtQtQtQtQtQtQtQt.#QtQtQtQtQtQtQtQtQtQtQtQtQtQtQtQtQtQtQtQtQtQtQtQtQtQtQtQtQtQtQtQtQtQtQt",
"QtQtQtQtQt.aQtQtQtQtQtQtQtQtQtQtQtQtQtQtQt.#QtQtQtQtQt.#.b.#QtQtQt.#.#QtQtQtQtQtQtQtQtQtQtQtQtQtQtQtQtQtQtQtQtQtQtQtQtQtQtQtQtQt",
"QtQtQtQtQtQtQtQtQtQtQtQtQtQtQtQtQtQtQtQtQt.#.#QtQtQtQtQt.#QtQtQtQtQtQtQtQtQtQtQtQtQt.#QtQtQt.#.#QtQtQtQtQtQtQtQtQtQtQt.a.#QtQtQt",
"QtQtQtQtQtQtQtQtQtQtQtQtQtQtQtQtQtQtQtQtQtQtQtQtQtQtQtQtQtQtQtQtQtQtQtQtQtQtQtQtQtQtQtQtQt.#.#QtQtQtQtQtQtQt.#QtQtQtQtQtQtQtQtQt",
"QtQtQtQtQtQtQtQtQtQtQtQtQtQtQtQtQtQtQtQtQtQtQtQtQtQtQtQtQtQtQtQtQtQtQtQtQtQt.#QtQt.#.#QtQtQtQtQtQtQtQtQtQtQtQtQtQtQtQtQtQtQtQtQt",
"QtQtQtQtQtQtQtQtQtQtQtQtQtQtQt.#QtQtQtQtQtQtQtQtQtQtQtQtQtQtQtQtQtQtQtQtQtQtQtQtQtQtQtQtQtQtQtQtQtQtQtQtQtQtQtQtQtQtQtQtQtQtQtQt"};
