/* XPM */
static char *dummy[]={
"64 64 44 1",
"K c #000000",
"y c #0d4c20",
"H c #292929",
"z c #2b6e4d",
"d c #38201a",
"P c #3f4f12",
"c c #472c26",
"j c #485a19",
"# c #667a31",
"o c #71554f",
"O c #72564f",
"N c #72594e",
"v c #735750",
"q c #745751",
"r c #765851",
". c #8c9a45",
"b c #9aa94c",
"x c #a77c6e",
"s c #a87d6f",
"u c #aa7e6f",
"e c #ab7f70",
"w c #ac8071",
"t c #ad8171",
"M c #ae8170",
"m c #ae8172",
"L c #b28472",
"I c #bd8c78",
"a c #c1a28b",
"D c #d09a83",
"C c #d69e86",
"k c #dca289",
"n c #dca389",
"g c #dca38a",
"p c #dda389",
"h c #dda48a",
"l c #de8a8f",
"f c #dea48a",
"E c #dfa58b",
"F c #e3a88c",
"A c #e5a98e",
"G c #e8ab8f",
"B c #ebad91",
"J c #efb092",
"i c #ffdfd1",
"................................................................",
"................................................#....#...##.....",
"..................###..............................##...........",
"...#.................................................#..........",
"...............................#................................",
"...........##......##..........#............................##..",
"............##.....#..................#.........................",
".#...........#.......................#a#........................",
".#.............##.....................#.....##......##..........",
".........#...#..##......##...................##.....#...........",
".........##..#####.###.##.....................#.................",
".#........#...##bb###..#........................##..............",
".##........#.##bbb##......................#...#..##......##.....",
"..##......###bbbbbb###........#...........##..#####.###.##......",
"...........##bbbbb#####.......##.#.........#...##bb###..#.......",
"...........#####bb##.#........#.###ccc......#.##bbbb#...........",
"..........###..#b##.....#........cccccccc..###bbbbbbb##.........",
"...........#..#bb#.#...##......dddddddcccc..#bbbbbbb####........",
".......##....##b#......#.....cdddddddddccc..####bbb##.#.........",
"........##....###.##.......cccccccccdddddcc###..#b##.....#......",
".........#.........#......ccccccccccccddddc.#..####.#...##......",
"..#......................cccccccdddccccddddc..#.........#.......",
"..#......................ccdcccddcccddccdddc...#.#.#............",
"........................dccdccececcddccccddc........#...........",
"........................dcddcecceccdcccdcddc....................",
".....##......##.........dcdccececcddcccdcddc....................",
"......##.....#..........dcdcccceccdceccccdd................##...",
".......#................dcececceecececcccc........#.........#...",
".........##..............cffeffeffeffecccc.......#a#.....#......",
"...#...#..#.......##.....cfghfffffffffcecc........#.......#..#..",
"...##..##......#.##.....ccfdiffffdiffffccc...................#..",
"....#............#......c.fddffffddffffcccjjj...................",
".....#.......#.......#...cfddffffddfffkccjjjjj..................",
"....##........##....#.#..llmfffffnhllfojcjjjjj..................",
"...............##....#....opfffffffpfpojccjjjj...#..............",
"...............#..........ooqrseteuvoojjjjjjjj..##..............",
".........#........#......owxsyyyyyyzzyoojjjjjj...##.#.......#...",
"........#..#.#...##....oofhnyzzzzzzzzyffojjjj.....##.......#a#..",
".##....##.#......#....offffoyzzzzzzzzyABCojjj....##.........#...",
"..##....#...##........offfooyyyyyyyyyyDEFGoj.......#............",
"...#.........#.........ooo..HHHHHHHHHHHIJBoj....................",
"............................HHHHHKHHHHHoLMN.....................",
"............................KKKKKHHHHHHjoO....##......##........",
".........#..........#........KKKHHHHHHjjjj.....##.....#.........",
"........#a#........#a#........KHHHHHKjj#........#...............",
".........#..........#..........HHHHKKj............##............",
"..........................##...HHHHP........#...#..##......##...",
"...#.....................##.................##..#####.###.##....",
".............................................#...#bbb###..#.....",
"...##.........#......#.........#..............#.##bbbb#.........",
"...#........##...............#....#...#......####bbbbbb##.......",
".....#......#.........#.......................#bbbbbbbb###......",
"....##....................##..................####bbb##.#.......",
".................##..........................###..#bb#.....#....",
"..................##..........................#..#bb#.#...##....",
"...........#..............................##....####......#.....",
"......#...#a#..............................##........##.........",
"..#....#...#..#.............................#.........#.........",
"..............#.............#...................................",
".....................#.....#a#...##.............................",
".....................##.....#.............#...##............#...",
".............................................##.......#.........",
"......................................#..##.....................",
"...............#................................................"};
