/* XPM */
static char *dummy[]={
"64 64 26 1",
"s c #000000",
"i c #0d4c20",
"u c #1a171a",
"x c #292929",
"j c #2b6e4d",
"d c #2e1814",
"w c #2f2e2f",
"f c #381f1a",
"g c #3f4f12",
"c c #472c26",
"e c #4c322d",
"# c #667a31",
"h c #71554f",
"v c #72594e",
". c #8c9a45",
"a c #9aa94c",
"k c #a77c6e",
"b c #c1a28b",
"o c #d69e86",
"m c #dca389",
"n c #dea48a",
"p c #dfa58b",
"q c #e3a88c",
"r c #e8ab8f",
"l c #ebad91",
"t c #efb092",
"................................................................",
"................................................#....#...##.....",
"..................###..............................##...........",
"...#.................................a...............#..........",
"...............................#................................",
"...........##......##..........#............................##..",
"............##.....#..................#.........................",
".#...........#..........a.........a..#b#........................",
".#.............##.....................#.....##......##..........",
".........#...#..##......##...................##.....#...........",
".........##..#####.###.##.....................#.................",
".#........#...##aa###..#........................##..............",
".##........#.##aaa##......................#...#..##......##.....",
"..##......###aaaaaa###........#...........##..#####.###.##......",
"...........##aaaaa#####.......##.#.........#...##aa###..#.......",
"...........#####aa##.#........#.###....a....#.##aaaa#...........",
"..........###..#a##.....#........###.......###aaaaaaa##.........",
"...........#..#aa#.#...##...................#aaaaaaa####........",
".......##....##a#......#.....cccccc.........####aaa##.#.........",
"........##....###.##.......cccddddccc......###..#a##.....#......",
".........#.........#......ccdddeeddddcc.....#..####.#...##......",
"..#......................cccdddddddeddcc##....#.........#.......",
"..#......................ccddfdddddffddcf##....#.#.#............",
"........................ccddfedddddddddcc.#.........#...........",
".................a......ccdcdddddddfddddc.......................",
".....##......##.........ccdcfdcccdddddfdd.......................",
"......##.....#..........ccdcffdddddfffddd..................##...",
".......#................fcddfffffffccddff.........#.........#...",
".........##..............cfdddddddddddfcc#.......#b#.....#......",
"...#...#..#.......##.....ccffdddddddffccc.........#.......#..#..",
"...##..##......#.##.....dcccffdddddffccc..gg.................#..",
"....#............#......d.cccffdddffccc.gggggg..................",
".....#.......#............#cccfffffccccgggggggg.................",
"....##........##...........#hcccccccceggggggggg.........a.......",
"...............##..........hhiiiiiiiihhgggggggg..#..............",
"...............#......a...#hiijjjjjjihkhggggggg.##..............",
".........#........#.......hkijjjjjjjiiklhggggg...##.#.......#...",
"........#..#.#...##.....#.hmijjjjjjjjjinlggggg....##.......#b#..",
".##....##.#......#......##hlijjjjjjjjjilohggg....##.........#...",
"..##....#...##...........#hliiiiiiiiiiipqrhgg......#............",
"...#.........#............hlssssssssssshtlhgg...................",
"....................a......hsuuuuuuuuusghhvg....................",
"............................swwwwwxxxxsgggg...##......##........",
".........#.................aswwwwwxxxwggggg....##.....#.........",
"........#b#..................swwxsxxwsgggg......#...............",
".........#..........#........swxxsxwwsggg.........##............",
"...................#b#........sssgxssggg....#...#..##......##...",
"...#................#.......................##..#####.###.##....",
".............................................#...#aaa###..#.....",
"...##.........##.....#......##.#..............#.##aaaa#.........",
"...#........##...............#....#...#......####aaaaaa##.......",
".....#......#.................................#aaaaaaaa###......",
"....##....................##..................####aaa##.#.......",
".................##..........................###..#aa#.....#....",
"..................##..........................#..#aa#.#...##....",
"...........#..............................##....####......#.....",
"......#...#b#.........................a....##........##.........",
"..#....#...#..#.............................#.........#.........",
"..............#.............#...................................",
".....a...............#.....#b#...##.............................",
".....................##.....#.............#...##...........a#...",
".............................................##.......#.........",
"......................................#..##.....................",
"...............#................................................"};
