/* XPM */
static char *dummy[]={
"64 64 44 1",
"N c #000000",
"w c #0d4c20",
"J c #292929",
"x c #2b6e4d",
"d c #38201a",
"P c #3f4f12",
"c c #472c26",
"j c #485a19",
"# c #667a31",
"l c #71554f",
"O c #72564f",
"K c #72594e",
"q c #735750",
"v c #745751",
"u c #765851",
". c #8c9a45",
"b c #9aa94c",
"y c #a77c6e",
"t c #a87d6f",
"r c #aa7e6f",
"e c #ab7f70",
"z c #ac8071",
"s c #ad8171",
"L c #ae8170",
"o c #ae8172",
"M c #b28472",
"I c #bd8c78",
"a c #c1a28b",
"G c #d09a83",
"A c #d69e86",
"k c #dca289",
"n c #dca389",
"h c #dca38a",
"p c #dda389",
"g c #dda48a",
"m c #de8a8f",
"f c #dea48a",
"F c #dfa58b",
"E c #e3a88c",
"C c #e5a98e",
"D c #e8ab8f",
"B c #ebad91",
"H c #efb092",
"i c #ffdfd1",
"................................................................",
"................................................#....#...##.....",
"..................###..............................##...........",
"...#.................................................#..........",
"...............................#................................",
"...........##......##..........#............................##..",
"............##.....#..................#.........................",
".#...........#.......................#a#........................",
".#.............##.....................#.....##......##..........",
".........#...#..##......##...................##.....#...........",
".........##..#####.###.##.....................#.................",
".#........#...##bb###..#........................##..............",
".##........#.##bbb##......................#...#..##......##.....",
"..##......###bbbbbb###........#...........##..#####.###.##......",
"...........##bbbbb#####.......##.#.........#...##bb###..#.......",
"...........#####bb##.ccc......#.###.........#.##bbbb#...........",
"..........###..#b#cccccccc.......###.......###bbbbbbb##.........",
"...........#..#bbccccddddddd................#bbbbbbb####........",
".......##....##b#cccdddddddddc#.............####bbb##.#.........",
"........##....##ccdddddccccccccc...........###..#b##.....#......",
".........#......cddddcccccccccccc...........#..####.#...##......",
"..#............cddddccccdddccccccc......##....#.........#.......",
"..#............cdddccddcccddcccdcc.......##....#.#.#............",
"...............cddccccddccececcdccd.......#.........#...........",
"...............cddcdcccdcceccecddcd##...........................",
".....##......##cddcdcccddccececcdcd#............................",
"......##.....#..ddccccecdcceccccdcd........................##...",
".......#.........cccccececeeccececd...............#.........#...",
".........##......cccceffeffeffeffc......##.......#a#.....#......",
"...#...#..#......ccecfffffffffghfc.###.##.........#.......#..#..",
"...##..##......#.cccffffidffffidfccjj..#.....................#..",
"....#............cccffffddffffddfjcjjj..........................",
".....#.......#....cckfffddffffddfcjjjjj.........................",
"....##........##..c.lfmmgnfffffommjjjjj.........................",
"...............##cc.lpfpfffffffpljjjjjj..........#..............",
"...............#.....llqresetuvlljjjjjj.#.......##..............",
".........#........#llwxxwwwwwwtyzljjjjj##........##.#.......#...",
"........#..#.#...#lffwxxxxxxxxwngflljjj#..........##.......#a#..",
".##....##.#......lABCwxxxxxxxxwlffffl............##.........#...",
"..##....#...##..lDEFGwwwwwwwwwwllfffjj....##.......#............",
"...#.........#..lBHIJJJJJJJJJJJjjlljjjj.........................",
"................KLMlJJJJJNJJJJJjjjjjjjj.........................",
".................Ol.JJJJJJNNNNNjjjjjjj........##......##........",
".........#...........JJJJJJNNNjjjj...#.........##.....#.........",
"........#a#...........NJJJJJNjj........#........#...............",
".........#..........#.NNJJJJjjjj..................##............",
"...................#a#.PJJJJjjjj............#...#..##......##...",
"...#................#....jjjjjjj..#.........##..#####.###.##....",
"...........................jjjj..#a#.........#...#bbb###..#.....",
"...##.........##.....#............#....##.....#.##bbbb#.........",
"...#........##...............#...............####bbbbbb##.......",
".....#......#.................................#bbbbbbbb###......",
"....##....................##........##........####bbb##.#.......",
".................##................##........###..#bb#.....#....",
"..................##..........................#..#bb#.#...##....",
"...........#..............................##....####......#.....",
"......#...#a#..............................##........##.........",
"..#....#...#..#.............................#.........#.........",
"..............#.............#...................................",
".....................#.....#a#...##.............................",
".....................##.....#.............#...##............#...",
".............................................##.......#.........",
"......................................#..##.....................",
"...............#................................................"};
