/* XPM */
static char *dummy[]={
"64 64 10 1",
"g c #2d3d38",
"e c #443f39",
"d c #5c554c",
"# c #667a31",
"h c #766264",
"f c #7b7765",
". c #8c9a45",
"a c #9aa94c",
"c c #a09b83",
"b c #c1a28b",
"................................................................",
"................................................#....#...##.....",
"..................###..............................##...........",
"...#.................................a...............#..........",
"...............................#................................",
"...........##......##..........#............................##..",
"............##.....#..................#.........................",
".#...........#..........a.........a..#b#........................",
".#.............##.....................#.....##......##..........",
".........#...#..##......##...................##.....#...........",
".........##..#####.###.##.....................#.................",
".#........#...##aa###..#........................##..............",
".##........#.##aaa##......................#...#..##......##.....",
"..##......###aaaaaa###........#...........##..#####.###.##......",
"...........##aaaaa#####.......##.#.........#...##aa###..#.......",
"...........#####aa##.#........#.###....a....#.##aaaa#...........",
"..........###..#a##.....#........###.......###aaaaaaa##.........",
"...........#..#accccd..##...................#aaaaaaa####........",
".......##....##ccccccd.#......aaa...........####aaa##.#.........",
"........##....cccccccee......aaaaa.........###..#a##.....#......",
".........#...cccccccfdcf....abaaaaaa........#..####.#...##......",
"..#..........ccccccfeccce..aaaaaaabaaa..##....#.........#.......",
"..#.........#fccffdccccde.aaaaaaaaaaaa...##....#.#.#............",
"............#dffccdfccdee#aaaaaaaaaaa#g...#.........#...........",
"............#eddffccddeee#abaabaaaaa#g#.........................",
".....##.....##eeddeeeee####aaaaaaaa#g#aa........................",
"......##.....###eeeeee#aag###aaaaagg#aaba..................##...",
".......#.......#######aaa#g#####aggg#aaa#.........#.........#...",
".........##.....######aaaa#ggaaagg#g##h###.......#b#.....#......",
"...#...#..#.......###aabaaggaaaaa##g#####g........#.......#..#..",
"...##..##......#.##.#aaaaagaaaaaa###g###gdg...a..............#..",
"....#............#.#ffaaag#aaaaa####ggggdddg....................",
".....#.......#....#fff##g##aab#####hg##ddddg....................",
"....##........##..#gf###d############g#ddddd#...........a.......",
"...............##.#gg##d######dd####dg#dd...#....#..............",
".............cc#..##ggdd#h###gdddd##g#dd....df..##..............",
".........#..cccc..###ggd#####gddddd#g#d...ce.....##.#.......#...",
"........#..#cccd.##...ggdf##dgdddddd#dc..cfe......##.......#b#..",
".##....##.#.ddd#.#.....ggdf#ddgdddddd#fccfdc.....##.........#...",
"..##....#...###........gggddddgdddddg#dfffdfc....c.#............",
"...#.........#....dcccd#gggdddgddddgg##dddfffc..cd..............",
"..................#ddd####ggdddgdggg##.###efffccdd..............",
"...................###...###eeeegg###....#edfffdde#...##........",
".........#...c.........c...########..#....#edddeee#...#.........",
"........#b#..cc.....cccd........#.....##...#eeee##..............",
".........#...dccc...ddd#....................####..##............",
".............#ddd..####.....................#...#..##......##...",
"...#..........###...#.......................##..#####.###.##....",
".............................................#...#aaa###..#.....",
"...##.........##.....#......##.#..............#.##aaaa#.........",
"...#........##...............#....#...#......####aaaaaa##.......",
".....#......#.................................#aaaaaaaa###......",
"....##....................##..................####aaa##.#.......",
".................##..........................###..#aa#.....#....",
"..................##..........................#..#aa#.#...##....",
"...........#..............................##....####......#.....",
"......#...#b#.........................a....##........##.........",
"..#....#...#..#.............................#.........#.........",
"..............#.............#...................................",
".....a...............#.....#b#...##.............................",
".....................##.....#.............#...##...........a#...",
".............................................##.......#.........",
"......................................#..##.....................",
"...............#................................................"};
